<svg id="Layer_1" data-name="Layer 1" xmlns="http://www.w3.org/2000/svg" viewBox="0 0 766.05 159.99">
  <defs>
    <style>
      .cls-1{fill:#1d1d1b}
    </style>
  </defs>
  <path class="cls-1" d="M695.86 274.22h26.36V285c6.87-11.09 18.59-13.33 30-13.33 28.77 0 36 16.2 36 40.58v60.6h-27.01v-55.67c0-16.19-4.76-24.19-17.34-24.19-14.66 0-21.65 8.2-21.65 28.18v51.66h-26.36zM108.92 292.33c-2.14-13.67-10.84-21-24.69-21-21.45 0-28.51 21.68-28.51 39.58 0 17.45 6.81 38.4 27.75 38.4 15.56 0 24.49-9.86 26.61-24.74h32.31c-4.25 32.3-26.66 50.51-58.65 50.51-36.76 0-61.52-26.43-61.52-63 0-37.94 22.65-65.3 62.23-65.3 28.7 0 55.09 14.39 57.2 45.53zM148.06 247h27.17v38c6.85-11.07 19.1-13.55 29.22-13.55 28.74 0 36 16.38 36 40.74v60.66h-27.08v-55.7c0-16.21-4.75-24.2-17.32-24.2-14.66 0-20.82 8.21-20.82 28.2v51.7h-27.17z" transform="translate(-22.22 -246.8)"/>
  <path class="cls-1" d="M332.78.21h27.06v125.82h-27.06z"/>
  <path class="cls-1" d="M548.88 406.8h-27.49l11.37-34.37-38.9-98.21h28.94l22.69 67.18L567 274.22h28zM347.65 274.22v98.61h-24.83v-9.49c-5.91 8.65-15.27 11.77-29.84 11.77-27.74 0-46.71-23-46.71-51.63s19.11-52.05 46.71-52.05c14.43 0 23.83 4.43 29.84 13.55v-10.76h24.83M297 292c-13.7 0-23.43 14.1-23.43 31.5S283.29 355 297 355s23.54-14.12 23.54-31.54S310.71 292 297 292zM488.91 274.22v98.61H464.1v-9.49c-5.93 8.65-15.27 11.77-29.84 11.77-27.75 0-46.68-23-46.68-51.63s19.07-52.05 46.68-52.05c14.43 0 23.83 4.43 29.84 13.55v-10.76h24.81M438.27 292c-13.71 0-23.43 14.1-23.43 31.5s9.72 31.5 23.43 31.5 23.51-14.12 23.51-31.54S452 292 438.27 292zM688.87 274.22v98.61H664v-9.49c-5.93 8.65-15.26 11.77-29.83 11.77-27.76 0-46.68-23-46.68-51.63s19.07-52.05 46.68-52.05c14.45 0 23.85 4.43 29.83 13.55v-10.76h24.83M638.24 292c-13.73 0-23.47 14.1-23.47 31.5s9.74 31.5 23.47 31.5 23.48-14.12 23.48-31.54S651.94 292 638.24 292z" transform="translate(-22.22 -246.8)"/>
</svg>
