<?xml version="1.0" encoding="utf-8"?>
<!-- Generator: Adobe Illustrator 25.2.1, SVG Export Plug-In . SVG Version: 6.00 Build 0)  -->
<svg version="1.1" xmlns="http://www.w3.org/2000/svg" xmlns:xlink="http://www.w3.org/1999/xlink" x="0px" y="0px"
	 viewBox="0 0 1972.4 659.8" style="enable-background:new 0 0 1972.4 659.8;" xml:space="preserve">
	<g id="base">
		<path class="st0" d="M1814.4,162.7c-0.3-3.4-0.1-6.8,1.4-9.9c1.4-3-2.2-4.9-4.5-4.9c-3.4,0-6.3,1.9-7.8,4.9
			c-1.8,3.7-2.2,8.4-1.8,12.4C1802.3,171.9,1814.9,168.5,1814.4,162.7z"/>
		<g>
			<path class="st0" d="M579.7,344.4c-0.8-6.5,0.1-12.7,1.2-19.1c0.7-4.4-11.7-1-12.4,3.2c-1.2,7.1-1.8,13.7-1,20.8
				C567.9,352.9,580.3,349.1,579.7,344.4z"/>
			<path class="st0" d="M717.2,398.6c-48.2,47-125.3,56.9-136.3-26.9c-0.8-6.2-11.6-4-12.5,1.1c-5.2,29.1-59.4,131.6-94.3,78.8
				c-9.6-14.5-21.4-26.1-39.5-19.6c-16.5,6-24.9,30.3-31.3,44.8c-0.1,0.3-0.3,0.7-0.4,1c-0.4-2.1-0.7-4.2-1.1-6.2
				c-2.1-10.6-3-25.9-9.9-34.7c-15.6-20.2-34,21.7-43,44.2c0-1.1,0.1-2.1,0.1-3.2c0.2-12.5,0.3-24.9-0.3-37.4
				c-0.6-13.3-1.3-34.6-16.6-39.2c-15.6-4.7-30.5,19.6-37.1,29.1c-22.5,32.3-40.1,66.7-65.4,97.2c-12.6,15.1-37.8,45.2-61.3,35.1
				c-20.9-9-21.1-45.6-21.6-64.2c-0.1-3.5,0-7,0.1-10.5c23.2-15.5,43.4-36.6,53.6-53.3c5.6-9.3-2.2-21.7-13.7-21.7
				c-19.4,0-32.4,12.7-42.6,31.5c-4.8,8.8-8.5,22.7-10.4,38c-55.8,36.3-95.8-2-79.8-60.1c10.2-37,33.6-71,55.7-101.9
				c14.9-20.9,104.2-152.4,133.2-119.9c4,4.5,15.4-2,10.9-7C204.9,139.1,82.4,339.2,64.1,371.4c-21.9,38.5-51.7,109.5,4.1,133.9
				c19.2,8.4,42.4,3,64.4-8.7c-1.4,38.2,9.7,79.6,45.6,78.4c21.5-0.7,40.8-21.2,54.4-35.5c25.5-26.8,44.8-59.2,63.7-90.8
				c4.8-8,27-48.9,35.4-31c5.2,11,4.3,26.2,4.6,38.1c0.3,12.6-6,39.4,1.9,50.4c1.5,2.1,5.2,1.6,7.2,0.8c12.9-4.7,19.8-33,24.8-43.8
				c9.3-20.2,11.8-20.5,16.8,0.9c2.1,8.9,1.7,25.3,8.7,32c2.4,2.3,6.2,1.6,8.8,0c11.2-6.9,16.4-30.7,22.2-41.1
				c18.4-32.9,42.6,19.3,60.6,24.3c36.7,10.3,71.3-44.2,86.3-82.6c25.7,71,116.3,53.8,154.8,4.6C733,394.6,723.1,392.8,717.2,398.6z
				 M149.5,464.4c0.9-3.2,1.8-6.4,2.8-9.6c3-17.9,34.7-40.8,38.4-27.2c2,7.2-23.6,29.9-42.5,44.5C148.6,469.6,149,467,149.5,464.4z"/>
		</g>
		<path class="st0" d="M1927.1,167.8c-8.5,16.9-19.3,31.3-34.2,43.1c-32.7,25.8-61,0.9-77-27.1c-2.2-3.9-11.3,1.1-12.3,4.1
			c-6.6,19.1-15,36.8-27.8,52.5c-25.8,31.5-47.2,2.9-58.8-20c14.9-3.1,30.2-11,34.8-26c3.5-18.9-10.4-26.1-27.9-19
			c-9.9,4-17.4,10.3-23.1,17.9c0.1-1.2,0.2-2.4,0.3-3.6c9.9-18.2,18.8-37.1,26.1-55.4c4.5-11.2,30.1-65.4,16-76.5
			c-31.5-24.8-51,108.2-53.5,128.5c-9.9,17-17.7,35.1-28.9,51.5c-3.2,4.8-17.5,27.3-26.6,22.9s-9.3-29-9.7-35v-0.1
			c0.1-0.5-0.1-0.8-0.4-1c-0.6-0.7-1.8-1-3.2-0.9c1.9-1.2,3.2-2.6,2.7-3.8c-7.7-18.5-28.5-11.2-41.3-2.6
			c-11.6,7.8-21.5,20.9-25.3,35.1c-0.2,0.3-0.4,0.6-0.5,1c-8.7,25.4-17.8,50.5-28.4,75c-0.8-17.4-3.1-34.4-7.1-50.2
			c-1.3-5.2-3.7-8.7-6.8-11c7.3-19.6,8.2-43-10.1-38.7c-12.6,3.1-23.4,11-31.5,21.2c-7.5,9.5-13.6,19.8-20.9,29.4
			c-17.8,23.6-22.4-12.5-23.7-24.2c0.3-8.2-2.4-14.9-12.5-14.6c-16,0.5-30.7,16.3-39.4,28.2c-4.5,6.1-8.6,13.6-10.4,21.3
			c-47.8,75-11-16.8-42.2-11.9c-7.5,1-9.9,3.6-15.5,8.6c-6.7,6-14.2,27.7-20,38.3c-3.1-11.9,4.7-27.7-2.7-39.1
			c-1.1-1.6-5.6,0.4-6.8,0.8c-9,3.4-14.4,8.6-20.4,16.2c-4.5,5.7-9.1,18.8-14.4,28.2c-1.3-17.2,6.3-50.6-18.3-38.6
			c-14.1,6.9-22.8,21.7-32,33.7c-6.5,8.4-13.2,16.5-20.5,24.2c-16.9,17.8-19.6-9-20.5-21.2c3.1-13.6,9.9-25.9,12.9-39.5
			c0.7-3-6.3-1.9-10.1,0.6c-16.2-11.3-34.3-5-48.9,5.8c-1.7-0.1-3.8,0.3-5.6,1.3c-29.1,17.3-43.3,38.1-68.7,62.5
			c-5.4,5.2-19.7,20.9-24.9,26.3c13.6-74.3,23.3-132.7,37.9-205.9c1.5-7.3-11.1-5.7-12.3-0.1c-12.7,57.4-31.8,115.3-57.9,168.5
			c-11.1,22.6-56.7,81.3-76.7,52.5c-7.3-10.5-9.7-22.6,2-51.1c9.1-22.3,18-44.4,25.3-67.4c5.8-18.2,25.9-90.9-16.5-82.1
			c-23.8,5-36.4,13.3-51.4,36.8c-24.4,36.8-59.9,70.1-80,88.8c-2.8,5.5,8.1,6.8,13.1,2.8c34.5-33.1,57.6-60.6,80-94.8
			c7.4-11.9,40.9-37,50.6-12.8c4.7,11.6,0.1,28.6-2.3,39.9c-4.3,19.7-11.3,38.9-18.8,57.5c-9.5,23.5-31.8,62.7-14.9,88.2
			c33.7,50.7,95.2-41.6,107.2-66c6-12.2,11.4-24.6,16.3-37.1c-7.4,39.9-13,67.6-18.7,93.2c-22.9,29.2-45.8,57.2-65.8,87.8
			c-20.8,32-41.9,71.8-34.7,111.1c2.4,13.1,18.8,39.9,39.6,36.6c14-2.2,28.5-33.7,34.8-55.2c14.5-50,32.5-131.3,41.2-179
			c11.5-12.4,21.1-22.4,33.3-34.1c17.1-16.4,32.6-35.1,51.1-49.8c-8.4,13.8-12.5,30.6-12.9,46.2c-0.5,20.7,16.4,29.3,34.2,22.1
			c14.7-5.9,24.1-19.8,31.6-34.2c7.2,23.1,26.5,15.2,45.6-4.8c4-4.2,37.1-49.2,40.8-45.3c10.6,11.4-2.9,33.4,4.3,45.1
			c1.4,2.2,8.4-1.5,9.8-2.3c16-8.9,16.4-36.7,31.3-47.9c5.9,12.9-3.8,30.3,3.6,41.8c1,1.6,5.6-0.4,6.8-0.8
			c10.8-4.2,14.6-17.5,19.6-26.9c3.3-6.3,12.2-29.3,18.7-18.4c3.8,6.4,4,15.8,5.3,23c4.7,27.1,23.7,9.2,37.1-7.8
			c0.8,3.7,2.4,7.3,5,10.6c8.2,10.1,24.8,2.9,32.6-3.6c8.2-6.8,14.8-18,18-28.4c5.5,14.3,15.5,22.2,33.6,7.2
			c6-5,10.6-12.1,14.9-18.4c2.7-4.4,5.6-8.7,8.5-13c3.3-3.9,6.1-8.4,10-11.6c19.5-16.3,25.3,1.3,18,17.5c-10-0.9-22.1,5.7-28.2,14.8
			c-16.3,24.5,13.2,27.9,26.2,9.8c1-1.4,2.5-4.1,4.2-7.6c0.9,2,1.6,4.5,2,7.8c2.2,17.2,3.8,35.5,4.2,52.7c0.1,5.3,0.1,10.5,0,15.8
			c-11.3,20.8-25.5,40.1-37.7,60.4c-5.3,8.8-39,76.3-4.7,74.7c25.3-1.1,38.3-44.7,44.1-63.5c7.2-23.3,11.3-49.5,12.2-75.9
			c12.3-23.8,22-48.7,31-73.9c8.3,10.8,28.8,6,38.4-1.1c8.7-6.5,14.4-16.4,18.7-26.9c11,31.3,40,8.9,60.6-21.5
			c3.6-5.3,7.1-10.8,10.6-16.4c-0.3,4.7-0.7,9.5-1,14.2c-4.9,18-15.8,53-7.3,66.4c1.1,1.8,3.9,1.1,5.5,0.7
			c19.4-4.7,13-51.4,13.9-65.1c0.1-1.4,0.2-2.8,0.3-4.2c1.2-5.6,2.5-11.2,4-16.8c1-4.2,2-8.6,5.1-11.7c31.6-31.4,45,0.1,4.6,17.5
			c-1.8,0.8-11.4,2.4-9.7,6.1c34.5,72.7,84.4,29.9,107.8-21.9c39.4,53.8,100.9,21.8,128.5-32.6
			C1941.2,161.4,1928.8,164.5,1927.1,167.8z M1731,66.7c2.4-4.4,0.8,15.9,0.6,17.3c-1.6,9.9-4.8,19.5-7.8,29
			c-5.2,16.5-11.9,32.7-19.9,48.1C1708,128,1715.4,95.1,1731,66.7z M948.4,583.4c-6.5,21-17.8,49.2-31.2,35.4
			c-8.7-9-10.1-14-13.2-25.7c-11.3-42,21.5-92.5,42.2-122.9c12.5-18.3,26.3-39,39.9-56.3C970.2,489.7,961.2,540.6,948.4,583.4z
			 M1139.4,332.5c0,0.2,0,0.3,0,0.5c-6.4,12.7-12.5,25.4-21,36.8c-12.6,16.8-27.4,6.7-29.7-10.5c-2-14.9,5.5-42.2,18.8-57.5
			c1.4-0.9,2.2-1.8,2.4-2.6c9.1-8.9,20.5-12.2,33.2-3.3c1.6,1.1,6.2-0.7,9.1-2.6C1149.2,306.8,1142.5,319,1139.4,332.5z
			 M1415.1,255.6c-0.1,0.4-0.2,0.8-0.2,1.3c0.1,0.6,0.1,1.2,0.2,1.7c-0.3,7.3-3.5,14.8-6.1,21.5c-2.6,9.9-22.4,44.5-31.1,22.5
			c-4.5-11.4,3.7-24.8,10.3-33.5c5.2-6.8,16.1-18.4,23.6-19c1.9-0.2,3.1,1.8,3.3,5.3L1415.1,255.6L1415.1,255.6z M1483.8,290.3
			c-4-1.7,6.8-14.7,15.7-15C1494.4,284.3,1489.7,291.9,1483.8,290.3z M1499.1,444c-4,11.1-9.9,21.8-16.4,31.7
			c-11.8,18-17.1-1.2-12.8-15.6c2.6-8.8,5.8-18.5,9.7-26.7c9-19.2,21.8-36.2,33.2-54C1510.9,401.3,1506.7,422.9,1499.1,444z
			 M1612,229.1c-3.3,11.7-6.9,23.2-12.5,33.9c-2.9,5.6-6.7,11.2-11.8,15c-6.6,4.9-16.2-2.3-18.9-8c-10.4-22.1,29.7-75.3,42.2-45.1
			c0.4,1,1.7,1.3,3.3,1.1C1612.9,226.9,1611.9,228,1612,229.1z"/>
	</g>
</svg>
